<?xml version="1.0" encoding="utf-8"?>
<!-- Generator: Adobe Illustrator 16.0.0, SVG Export Plug-In . SVG Version: 6.00 Build 0)  -->
<!DOCTYPE svg PUBLIC "-//W3C//DTD SVG 1.1//EN" "http://www.w3.org/Graphics/SVG/1.1/DTD/svg11.dtd">
<svg version="1.1" id="Layer_1" xmlns="http://www.w3.org/2000/svg" xmlns:xlink="http://www.w3.org/1999/xlink" x="0px" y="0px"
	 width="32px" height="32px" viewBox="0 0 32 32" enable-background="new 0 0 32 32" xml:space="preserve">
<path fill-rule="evenodd" clip-rule="evenodd" d="M17.996,11.219c0-1.393-2.561-3.689-5.459-3.689c-2.823,0-5.534,2.334-5.534,3.689
	v3.953c0,1.505,0.715,4.31,2.391,5.57c0.526,0.397,0.809,0.999,0.752,1.641c-0.075,0.621-0.452,1.184-1.054,1.467l-6.457,3.294
	l-0.131,0.075c-0.151,0.075-0.358,0.189-0.508,0.281v1.677h21.008v-1.695c-0.133-0.094-0.322-0.188-0.471-0.242l-0.171-0.096
	l-6.306-3.276c-0.583-0.301-0.979-0.863-1.035-1.484c-0.056-0.642,0.226-1.243,0.753-1.641c1.732-1.279,2.222-4.083,2.222-5.57
	V11.219z M19.991,11.219v3.953c0,1.92-0.642,5.308-2.975,7.039l6.287,3.295c0,0,1.692,0.642,1.692,1.582v2.39
	c0,0.866-0.752,1.581-1.692,1.581H1.694C0.753,31.059,0,30.344,0,29.478v-2.39c0-0.886,1.694-1.582,1.694-1.582l6.457-3.295
	c-2.373-1.788-3.144-5.288-3.144-7.039v-3.953c0-2.635,3.802-5.572,7.529-5.572C16.282,5.647,19.991,8.583,19.991,11.219z
	 M30.305,26.353h-3.313c-0.244-0.827-0.413-1.448-1.034-1.882h4.046v-1.677c-0.131-0.092-0.32-0.188-0.471-0.242l-0.188-0.077
	l-6.381-3.295c-0.582-0.301-0.979-0.845-1.035-1.485c-0.057-0.622,0.225-1.242,0.752-1.638c1.733-1.279,2.314-4.084,2.314-5.552
	V6.532c0-1.394-2.652-3.708-5.551-3.708c-1.431,0-2.768,0.452-3.822,1.223c-0.791-0.226-1.694-0.226-2.522-0.282
	c1.45-1.581,3.934-2.823,6.344-2.823c3.746,0,7.547,2.955,7.547,5.591v3.972c0,1.9-0.733,5.308-3.067,7.039l6.38,3.277
	c0,0,1.695,0.657,1.695,1.58v2.354C32,25.638,31.246,26.353,30.305,26.353z"/>
</svg>
