<?xml version="1.0" encoding="utf-8"?>
<!-- Generator: Adobe Illustrator 16.0.0, SVG Export Plug-In . SVG Version: 6.00 Build 0)  -->
<!DOCTYPE svg PUBLIC "-//W3C//DTD SVG 1.1//EN" "http://www.w3.org/Graphics/SVG/1.1/DTD/svg11.dtd">
<svg version="1.1" id="Layer_1" xmlns="http://www.w3.org/2000/svg" xmlns:xlink="http://www.w3.org/1999/xlink" x="0px" y="0px"
	 width="32px" height="32px" viewBox="0 0 32 32" enable-background="new 0 0 32 32" xml:space="preserve">
<g id="Pencil">
	<g>
		<path fill-rule="evenodd" clip-rule="evenodd" fill="#1B1B1B" d="M30.136,1.697c-1.087-1.042-2.287-1.57-3.567-1.57
			c-2.002,0-3.462,1.293-3.862,1.689C22.145,2.373,2.962,21.563,2.962,21.563c-0.125,0.126-0.216,0.283-0.263,0.456
			c-0.433,1.598-2.6,8.691-2.622,8.763c-0.111,0.363-0.012,0.759,0.256,1.026c0.192,0.191,0.449,0.295,0.712,0.295
			c0.104,0,0.208-0.016,0.31-0.049c0.073-0.024,7.395-2.392,8.6-2.75c0.159-0.048,0.304-0.134,0.422-0.251
			c0.762-0.752,18.653-18.444,19.84-19.671c1.229-1.266,1.838-2.583,1.815-3.917C32.008,4.147,31.37,2.88,30.136,1.697z
			 M22.389,5.008c0.504,0.121,1.702,0.52,2.933,1.761c1.243,1.254,1.574,2.684,1.634,3c-3.925,3.905-12.963,12.848-16.521,16.367
			c-0.328-0.769-0.851-1.688-1.71-2.555c-1.044-1.053-2.106-1.646-2.926-1.979C9.321,18.078,18.523,8.872,22.389,5.008z
			 M4.443,23.286c0.547,0.145,1.686,0.565,2.849,1.738c0.896,0.904,1.316,1.897,1.505,2.504c-1.379,0.442-4.417,1.49-6.354,2.115
			C3.017,27.758,3.981,24.829,4.443,23.286z M28.769,7.956c-0.041,0.042-0.108,0.11-0.188,0.192
			c-0.315-0.813-0.869-1.856-1.827-2.822c-0.982-0.991-1.974-1.566-2.771-1.91c0.069-0.069,0.124-0.124,0.145-0.144
			c0.114-0.112,1.15-1.103,2.442-1.103c0.744,0,1.474,0.339,2.171,1.008c0.827,0.792,1.253,1.575,1.267,2.326
			C30.02,6.269,29.604,7.094,28.769,7.956z"/>
	</g>
</g>
</svg>
