<?xml version="1.0" encoding="utf-8"?>
<!-- Generator: Adobe Illustrator 16.0.0, SVG Export Plug-In . SVG Version: 6.00 Build 0)  -->
<!DOCTYPE svg PUBLIC "-//W3C//DTD SVG 1.1//EN" "http://www.w3.org/Graphics/SVG/1.1/DTD/svg11.dtd">
<svg version="1.1" id="Layer_1" xmlns="http://www.w3.org/2000/svg" xmlns:xlink="http://www.w3.org/1999/xlink" x="0px" y="0px"
	 width="32px" height="32px" viewBox="0 0 32 32" enable-background="new 0 0 32 32" xml:space="preserve">
<path fill-rule="evenodd" clip-rule="evenodd" d="M13.06,2.16C6.96,2.16,2,5.9,2,10.56c0,2.801,1.24,6,4.02,7.54l1.08,0.619
	L7,20.039c0,0,0.04,0.66-0.64,2.762C7.48,22.039,8.76,20.859,9.06,20.5l1.28-1.16l1.12,0.08c0.94,0.16,1.88,0.119,1.88,0.119
	c6.102,0,10.641-3.799,10.66-8.979C24,5.9,19.16,2.16,13.06,2.16z M13.28,21.68H12.6c-0.479,0-0.859-0.02-1.439-0.121
	c-0.561,0.742-4.32,3.861-6.88,4.32l0,0h-0.2c-0.42,0-0.74-0.34-0.74-0.799c0-0.1,0.021-0.221,0.061-0.32
	C3.88,23.859,5.1,21.699,5.1,20.1v-0.061C1.66,18.121,0,14.22,0,10.56C0,4.7,5.84,0,13.06,0C20.281,0,26,4.7,26,10.56
	C26.08,17.2,20.48,21.68,13.28,21.68z M27.641,26.559v0.063c0,1.359,0.66,3.639,1.059,4.418c0.041,0.082,0.061,0.16,0.061,0.262
	c0,0.398-0.279,0.699-0.639,0.699l-0.16-0.02L27.941,32c-2.201-0.4-4.922-3.199-5.402-3.84c-0.5,0.08-0.82,0.1-1.238,0.1
	l-0.582-0.02c-4.079,0-7.318-1.66-9.299-4.279c0.061-0.082,3.32-0.082,2.84-0.041c1.721,1.459,3.74,2.16,6.459,2.16
	c0,0,1.121,0,1.541-0.061l1.041-0.18c0,0,0.68,1.301,2.619,2.84c-0.139-0.699-0.26-3.48-0.26-3.48l1-0.539
	c2.34-1.301,3.34-3,3.34-5.34c0-1.9-0.48-3.221-2.199-4.5c0.238-0.74,0.439-1.58,0.5-2.36C30.941,14.14,32,16.38,32,19.32
	C32,22.48,30.621,24.9,27.641,26.559z"/>
</svg>
