<?xml version="1.0" standalone="no"?>
<!-- Generator: Adobe Fireworks 10, Export SVG Extension by Aaron Beall (http://fireworks.abeall.com) . Version: 0.6.1  -->
<!DOCTYPE svg PUBLIC "-//W3C//DTD SVG 1.1//EN" "http://www.w3.org/Graphics/SVG/1.1/DTD/svg11.dtd">
<svg id="prototipo-bpvc-controle-de-vendasV3.fw-Lead%20Lista" viewBox="0 0 1366 768" style="background-color:#ffffff" version="1.1"
	xmlns="http://www.w3.org/2000/svg" xmlns:xlink="http://www.w3.org/1999/xlink" xml:space="preserve"
	x="0px" y="0px" width="1366px" height="768px"
>
	<g>
		<g id="079__dashboard">
			<path d="M 28 86 C 23.9 86 20.5 89.4 20.5 93.5 C 20.5 97.6 23.9 101 28 101 C 32.1 101 35.5 97.6 35.5 93.5 C 35.5 89.4 32.1 86 28 86 L 28 86 ZM 28 102 C 23.3 102 19.5 98.2 19.5 93.5 C 19.5 88.8 23.3 85 28 85 C 32.7 85 36.5 88.8 36.5 93.5 C 36.5 98.2 32.7 102 28 102 L 28 102 Z" fill="#ffffff"/>
			<path d="M 28 88 C 27.7 88 27.5 87.8 27.5 87.5 L 27.5 85.5 C 27.5 85.2 27.7 85 28 85 C 28.3 85 28.5 85.2 28.5 85.5 L 28.5 87.5 C 28.5 87.8 28.3 88 28 88 L 28 88 Z" fill="#ffffff"/>
			<path d="M 28.5 85.5 L 28.5 87.5 C 28.5 87.8 28.3 88 28 88 C 27.7 88 27.5 87.8 27.5 87.5 L 27.5 85.5 L 28.5 85.5 L 28.5 85.5 Z" fill="#ffffff"/>
			<path d="M 22.7 87.5 L 24.1 88.9 C 24.3 89.1 24.3 89.4 24.1 89.6 C 24 89.7 23.9 89.7 23.7 89.7 C 23.5 89.7 23.4 89.7 23.3 89.6 L 22 88.2 L 22.7 87.5 L 22.7 87.5 Z" fill="#ffffff"/>
			<path d="M 34 88.2 L 32.6 89.6 C 32.5 89.7 32.4 89.7 32.2 89.7 C 32 89.7 31.9 89.7 31.8 89.6 C 31.6 89.4 31.6 89.1 31.8 88.9 L 33.2 87.5 L 34 88.2 L 34 88.2 Z" fill="#ffffff"/>
			<path d="M 20 93 L 22 93 C 22.3 93 22.5 93.2 22.5 93.5 C 22.5 93.8 22.3 94 22 94 L 20 94 L 20 93 L 20 93 Z" fill="#ffffff"/>
			<path d="M 36 94 L 34 94 C 33.7 94 33.5 93.8 33.5 93.5 C 33.5 93.2 33.7 93 34 93 L 36 93 L 36 94 L 36 94 Z" fill="#ffffff"/>
			<path d="M 27.5 93.5 L 27.5 91.5 C 27.5 91.2 27.7 91 28 91 C 28.3 91 28.5 91.2 28.5 91.5 L 28.5 93.5 L 27.5 93.5 L 27.5 93.5 Z" fill="#ffffff"/>
			<path d="M 28 94 C 27.7 94 27.5 94.2 27.5 94.5 C 27.5 94.8 27.7 95 28 95 C 28.3 95 28.5 94.8 28.5 94.5 C 28.5 94.2 28.3 94 28 94 L 28 94 ZM 28 96 C 27.2 96 26.5 95.3 26.5 94.5 C 26.5 93.7 27.2 93 28 93 C 28.8 93 29.5 93.7 29.5 94.5 C 29.5 95.3 28.8 96 28 96 L 28 96 Z" fill="#ffffff"/>
		</g>
	</g>
	<g>
		<path d="M 30.1538 365.1615 L 32.3077 365.1615 C 33.8154 365.1615 35 366.323 35 367.8013 L 35 378.3602 C 35 379.8385 33.8154 381 32.3077 381 L 23.6923 381 C 22.1846 381 21 379.8385 21 378.3602 L 21 367.8013 C 21 366.323 22.1846 365.1615 23.6923 365.1615 L 25.8462 365.1615 L 25.8462 366.2174 L 23.6923 366.2174 C 22.8307 366.2174 22.0769 366.9565 22.0769 367.8013 L 22.0769 378.3602 C 22.0769 379.205 22.8307 379.9441 23.6923 379.9441 L 32.3077 379.9441 C 33.1693 379.9441 33.9231 379.205 33.9231 378.3602 L 33.9231 367.8013 C 33.9231 366.9565 33.1693 366.2174 32.3077 366.2174 L 30.1538 366.2174 L 30.1538 365.1615 L 30.1538 365.1615 Z" fill="#ffffff"/>
		<path d="M 26.6 365.1615 C 26.4923 365.1615 26.3846 365.2671 26.3846 365.3727 L 26.3846 367.1677 C 26.3846 367.2733 26.4923 367.3789 26.6 367.3789 L 29.5077 367.3789 C 29.6154 367.3789 29.723 367.2733 29.723 367.1677 L 29.723 365.3727 C 29.723 365.2671 29.6154 365.1615 29.5077 365.1615 L 26.6 365.1615 L 26.6 365.1615 ZM 29.4 368.3292 L 26.4923 368.3292 C 25.8462 368.3292 25.2001 367.8013 25.2001 367.0621 L 25.2001 365.2671 C 25.2001 364.6335 25.7385 364 26.4923 364 L 29.4 364 C 30.0461 364 30.6923 364.528 30.6923 365.2671 L 30.6923 367.0621 C 30.6923 367.8013 30.1538 368.3292 29.4 368.3292 L 29.4 368.3292 Z" fill="#ffffff"/>
		<path d="M 31.2307 377.8323 L 24.7693 377.8323 C 24.446 377.8323 24.2307 377.6211 24.2307 377.3043 C 24.2307 376.9876 24.446 376.7764 24.7693 376.7764 L 31.2307 376.7764 C 31.554 376.7764 31.7693 376.9876 31.7693 377.3043 C 31.7693 377.6211 31.554 377.8323 31.2307 377.8323 L 31.2307 377.8323 Z" fill="#ffffff"/>
		<path d="M 31.2307 374.8323 L 24.7693 374.8323 C 24.446 374.8323 24.2307 374.6211 24.2307 374.3043 C 24.2307 373.9876 24.446 373.7764 24.7693 373.7764 L 31.2307 373.7764 C 31.554 373.7764 31.7693 373.9876 31.7693 374.3043 C 31.7693 374.6211 31.554 374.8323 31.2307 374.8323 L 31.2307 374.8323 Z" fill="#ffffff"/>
		<path d="M 31.2307 371.8323 L 24.7693 371.8323 C 24.446 371.8323 24.2307 371.6211 24.2307 371.3043 C 24.2307 370.9876 24.446 370.7764 24.7693 370.7764 L 31.2307 370.7764 C 31.554 370.7764 31.7693 370.9876 31.7693 371.3043 C 31.7693 371.6211 31.554 371.8323 31.2307 371.8323 L 31.2307 371.8323 Z" fill="#ffffff"/>
	</g>
	<g>
		<path d="M 36.4762 187.6688 L 24.9524 187.6688 C 24.6381 187.6688 24.4286 187.4562 24.4286 187.1375 C 24.4286 186.8188 24.6381 186.6063 24.9524 186.6063 L 36.4762 186.6063 C 36.7905 186.6063 37 186.8188 37 187.1375 C 37 187.4562 36.7905 187.6688 36.4762 187.6688 L 36.4762 187.6688 Z" fill="#ffffff"/>
		<g>
			<path d="M 25.0957 181.2204 C 23.5015 181.2204 22.2823 182.7101 22.2823 184.4791 C 22.2823 186.248 23.5015 187.7378 25.0957 187.7378 C 26.6899 187.7378 27.909 186.248 27.909 184.4791 C 27.909 182.7101 26.6899 181.2204 25.0957 181.2204 L 25.0957 181.2204 ZM 25.0957 188.6688 C 23.0325 188.6688 21.3445 186.8067 21.3445 184.4791 C 21.3445 182.1514 23.0325 180.2893 25.0957 180.2893 C 27.1588 180.2893 28.8468 182.1514 28.8468 184.4791 C 28.8468 186.8067 27.1588 188.6688 25.0957 188.6688 L 25.0957 188.6688 Z" fill="#ffffff"/>
			<path d="M 30.7224 195 C 30.4411 195 30.2535 194.8138 30.2535 194.5345 L 30.2535 191.3689 C 30.2535 189.5999 28.8468 188.2033 27.065 188.2033 L 26.7837 188.2033 C 26.5023 188.2033 26.3147 188.0171 26.3147 187.7378 C 26.3147 187.4584 26.5023 187.2722 26.7837 187.2722 L 27.1588 187.2722 C 29.4095 187.2722 31.285 189.1344 31.285 191.3689 L 31.285 194.5345 C 31.1912 194.8138 31.0037 195 30.7224 195 L 30.7224 195 Z" fill="#ffffff"/>
			<path d="M 19.4689 195 C 19.1875 195 19 194.8138 19 194.5345 L 19 191.3689 C 19 189.1344 20.8757 187.2722 23.1262 187.2722 L 23.5015 187.2722 C 23.7827 187.2722 23.9703 187.4584 23.9703 187.7378 C 23.9703 188.0171 23.7827 188.2033 23.5015 188.2033 L 23.1262 188.2033 C 21.3445 188.2033 19.9378 189.5999 19.9378 191.3689 L 19.9378 194.5345 C 19.9378 194.8138 19.7502 195 19.4689 195 L 19.4689 195 Z" fill="#ffffff"/>
		</g>
		<g>
			<path d="M 30.6823 178.7071 C 29.5946 178.7071 28.7631 179.8386 28.7631 181.1822 C 28.7631 182.5257 29.5946 183.6572 30.6823 183.6572 C 31.7699 183.6572 32.6016 182.5257 32.6016 181.1822 C 32.6016 179.8386 31.7699 178.7071 30.6823 178.7071 L 30.6823 178.7071 ZM 30.6823 184.3643 C 29.2748 184.3643 28.1232 182.95 28.1232 181.1822 C 28.1232 179.4143 29.2748 178 30.6823 178 C 32.0898 178 33.2414 179.4143 33.2414 181.1822 C 33.2414 182.95 32.0898 184.3643 30.6823 184.3643 L 30.6823 184.3643 Z" fill="#ffffff"/>
			<path d="M 34.5209 187.4534 C 34.329 187.4534 34.201 187.312 34.201 187.0998 L 34.201 186.4151 C 34.201 185.0715 33.2414 184.0107 32.0258 184.0107 L 31.8339 184.0107 C 31.642 184.0107 31.5141 183.8693 31.5141 183.6572 C 31.5141 183.445 31.642 183.3036 31.8339 183.3036 L 32.0898 183.3036 C 33.6252 183.3036 34.9048 184.7179 34.9048 186.4151 L 34.9048 187.0998 C 34.8409 187.312 34.7128 187.4534 34.5209 187.4534 L 34.5209 187.4534 Z" fill="#ffffff"/>
			<path d="M 26.8436 187.5625 C 26.6518 187.5625 26.5238 187.4211 26.5238 187.2089 L 26.5238 186.4151 C 26.5238 184.7179 27.8033 183.3036 29.3387 183.3036 L 29.5946 183.3036 C 29.7865 183.3036 29.9147 183.445 29.9147 183.6572 C 29.9147 183.8693 29.7865 184.0107 29.5946 184.0107 L 29.3387 184.0107 C 28.1232 184.0107 27.1635 185.0715 27.1635 186.4151 L 27.1635 187.2089 C 27.1635 187.4211 27.0356 187.5625 26.8436 187.5625 L 26.8436 187.5625 Z" fill="#ffffff"/>
		</g>
	</g>
	<g>
		<path d="M 28.4504 133.0127 C 26.7634 133.0127 25.4733 134.6329 25.4733 136.557 C 25.4733 138.481 26.7634 140.1013 28.4504 140.1013 C 30.1374 140.1013 31.4275 138.481 31.4275 136.557 C 31.4275 134.6329 30.1374 133.0127 28.4504 133.0127 L 28.4504 133.0127 ZM 28.4504 141.1139 C 26.2672 141.1139 24.4809 139.0886 24.4809 136.557 C 24.4809 134.0253 26.2672 132 28.4504 132 C 30.6336 132 32.4199 134.0253 32.4199 136.557 C 32.4199 139.0886 30.6336 141.1139 28.4504 141.1139 L 28.4504 141.1139 Z" fill="#ffffff"/>
		<path d="M 34.4046 148 C 34.1069 148 33.9084 147.7975 33.9084 147.4937 L 33.9084 144.0507 C 33.9084 142.1266 32.4199 140.6076 30.5343 140.6076 L 30.2367 140.6076 C 29.9389 140.6076 29.7404 140.4051 29.7404 140.1013 C 29.7404 139.7975 29.9389 139.5949 30.2367 139.5949 L 30.6336 139.5949 C 33.0153 139.5949 35 141.6203 35 144.0507 L 35 147.4937 C 34.9007 147.7975 34.7023 148 34.4046 148 L 34.4046 148 Z" fill="#ffffff"/>
		<path d="M 22.4962 148 C 22.1984 148 22 147.7975 22 147.4937 L 22 144.0507 C 22 141.6203 23.9848 139.5949 26.3664 139.5949 L 26.7634 139.5949 C 27.061 139.5949 27.2596 139.7975 27.2596 140.1013 C 27.2596 140.4051 27.061 140.6076 26.7634 140.6076 L 26.3664 140.6076 C 24.4809 140.6076 22.9924 142.1266 22.9924 144.0507 L 22.9924 147.4937 C 22.9924 147.7975 22.7939 148 22.4962 148 L 22.4962 148 Z" fill="#ffffff"/>
	</g>
	<g>
		<g id="092__file">
			<path d="M 24 273 C 23.2 273 22.5 273.7 22.5 274.5 L 22.5 286.5 C 22.5 287.3 23.2 288 24 288 L 32 288 C 32.8 288 33.5 287.3 33.5 286.5 L 33.5 274.5 C 33.5 273.7 32.8 273 32 273 L 24 273 L 24 273 ZM 32 289 L 24 289 C 22.6 289 21.5 287.9 21.5 286.5 L 21.5 274.5 C 21.5 273.1 22.6 272 24 272 L 32 272 C 33.4 272 34.5 273.1 34.5 274.5 L 34.5 286.5 C 34.5 287.9 33.4 289 32 289 L 32 289 Z" fill="#ffffff"/>
			<path d="M 25.5 277 L 26.5 277 L 26.5 276 L 25.5 276 L 25.5 277 L 25.5 277 ZM 27 278 L 25 278 C 24.7 278 24.5 277.8 24.5 277.5 L 24.5 275.5 C 24.5 275.2 24.7 275 25 275 L 27 275 C 27.3 275 27.5 275.2 27.5 275.5 L 27.5 277.5 C 27.5 277.8 27.3 278 27 278 L 27 278 Z" fill="#ffffff"/>
			<path d="M 31 280 L 25 280 C 24.7 280 24.5 279.8 24.5 279.5 C 24.5 279.2 24.7 279 25 279 L 31 279 C 31.3 279 31.5 279.2 31.5 279.5 C 31.5 279.8 31.3 280 31 280 L 31 280 Z" fill="#ffffff"/>
			<path d="M 31 283 L 25 283 C 24.7 283 24.5 282.8 24.5 282.5 C 24.5 282.2 24.7 282 25 282 L 31 282 C 31.3 282 31.5 282.2 31.5 282.5 C 31.5 282.8 31.3 283 31 283 L 31 283 Z" fill="#ffffff"/>
			<path d="M 31 286 L 25 286 C 24.7 286 24.5 285.8 24.5 285.5 C 24.5 285.2 24.7 285 25 285 L 31 285 C 31.3 285 31.5 285.2 31.5 285.5 C 31.5 285.8 31.3 286 31 286 L 31 286 Z" fill="#ffffff"/>
			<path d="M 31 277 L 29 277 C 28.7 277 28.5 276.8 28.5 276.5 C 28.5 276.2 28.7 276 29 276 L 31 276 C 31.3 276 31.5 276.2 31.5 276.5 C 31.5 276.8 31.3 277 31 277 L 31 277 Z" fill="#ffffff"/>
		</g>
	</g>
	<g>
		<g>
			<path d="M 28 230.9643 C 27.1199 230.9643 26.3378 231.8482 26.3378 232.9286 C 26.3378 234.0089 27.0222 234.8929 28 234.8929 C 28.9778 234.8929 29.6622 234.0089 29.6622 232.9286 C 29.6622 231.8482 28.8801 230.9643 28 230.9643 L 28 230.9643 ZM 28 235.875 C 26.5334 235.875 25.3599 234.5982 25.3599 232.9286 C 25.3599 231.2589 26.5334 229.9821 28 229.9821 C 29.4666 229.9821 30.6401 231.2589 30.6401 232.9286 C 30.6401 234.5982 29.4666 235.875 28 235.875 L 28 235.875 Z" fill="#ffffff"/>
			<path d="M 29.0756 234.5982 L 29.271 234.5982 C 30.8356 234.5982 32.1068 235.875 32.1068 237.4464 L 32.1068 239.5089 C 32.1068 239.8036 31.9111 240 31.6177 240 C 31.3245 240 31.129 239.8036 31.129 239.5089 L 31.129 237.4464 C 31.129 236.4643 30.2488 235.5804 29.271 235.5804 L 29.0756 235.5804 L 29.0756 234.5982 L 29.0756 234.5982 Z" fill="#ffffff"/>
			<path d="M 26.9244 235.5804 L 26.729 235.5804 C 25.7511 235.5804 24.871 236.4643 24.871 237.4464 L 24.871 239.5089 C 24.871 239.8036 24.6755 240 24.3823 240 C 24.0889 240 23.8932 239.8036 23.8932 239.5089 L 23.8932 237.4464 C 23.8932 235.875 25.1644 234.5982 26.729 234.5982 L 26.9244 234.5982 L 26.9244 235.5804 L 26.9244 235.5804 Z" fill="#ffffff"/>
		</g>
		<g>
			<path d="M 33.5777 227.9821 C 32.8932 227.9821 32.3067 228.6696 32.3067 229.4554 C 32.3067 230.2411 32.8932 230.9286 33.5777 230.9286 C 34.2622 230.9286 34.8489 230.2411 34.8489 229.4554 C 34.8489 228.6696 34.2622 227.9821 33.5777 227.9821 L 33.5777 227.9821 ZM 33.5777 231.9107 C 32.4045 231.9107 31.3289 230.8304 31.3289 229.4554 C 31.3289 228.0804 32.3067 227 33.5777 227 C 34.8489 227 35.8267 228.0804 35.8267 229.4554 C 35.8267 230.8304 34.7511 231.9107 33.5777 231.9107 L 33.5777 231.9107 Z" fill="#ffffff"/>
			<path d="M 34.4577 230.7322 L 34.6533 230.7322 C 35.9244 230.7322 37 231.8125 37 233.0893 L 37 234.7589 C 37 235.0536 36.8044 235.25 36.5112 235.25 C 36.2177 235.25 36.0222 235.0536 36.0222 234.7589 L 36.0222 233.0893 C 36.0222 232.3036 35.4357 231.7143 34.6533 231.7143 L 34.4577 231.7143 L 34.4577 230.7322 L 34.4577 230.7322 Z" fill="#ffffff"/>
			<path d="M 32.6978 231.7143 L 32.5023 231.7143 C 31.72 231.7143 31.1333 232.3036 31.1333 233.0893 C 31.1333 233.3839 30.9379 233.5804 30.6445 233.5804 C 30.3511 233.5804 30.1556 233.3839 30.1556 233.0893 C 30.1556 231.8125 31.2311 230.7322 32.5023 230.7322 L 32.6978 230.7322 L 32.6978 231.7143 L 32.6978 231.7143 Z" fill="#ffffff"/>
		</g>
		<g>
			<path d="M 22.4223 227.9821 C 21.7378 227.9821 21.151 228.6696 21.151 229.4554 C 21.151 230.2411 21.7378 230.9286 22.4223 230.9286 C 23.1068 230.9286 23.6933 230.2411 23.6933 229.4554 C 23.6933 228.6696 23.1068 227.9821 22.4223 227.9821 L 22.4223 227.9821 ZM 22.4223 231.9107 C 21.2488 231.9107 20.1733 230.8304 20.1733 229.4554 C 20.1733 228.0804 21.151 227 22.4223 227 C 23.6933 227 24.6711 228.0804 24.6711 229.4554 C 24.6711 230.8304 23.5955 231.9107 22.4223 231.9107 L 22.4223 231.9107 Z" fill="#ffffff"/>
			<path d="M 23.3022 230.7322 L 23.4977 230.7322 C 24.7689 230.7322 25.8444 231.8125 25.8444 233.0893 C 25.8444 233.3839 25.6489 233.5804 25.3555 233.5804 C 25.0621 233.5804 24.8667 233.3839 24.8667 233.0893 C 24.8667 232.3036 24.28 231.7143 23.4977 231.7143 L 23.3022 231.7143 L 23.3022 230.7322 L 23.3022 230.7322 Z" fill="#ffffff"/>
			<path d="M 21.5423 231.7143 L 21.3467 231.7143 C 20.5643 231.7143 19.9778 232.3036 19.9778 233.0893 L 19.9778 234.7589 C 19.9778 235.0536 19.7822 235.25 19.4888 235.25 C 19.1956 235.25 19 235.0536 19 234.7589 L 19 233.0893 C 19 231.8125 20.0756 230.7322 21.3467 230.7322 L 21.5423 230.7322 L 21.5423 231.7143 L 21.5423 231.7143 Z" fill="#ffffff"/>
		</g>
	</g>
	<g id="082__setting_cog">
		<path d="M 28.1 420.1 C 27.3 420.1 26.6 420.8 26.6 421.6 C 26.6 422.4 27.3 423.1 28.1 423.1 C 28.9 423.1 29.6 422.4 29.6 421.6 C 29.6 420.8 28.9 420.1 28.1 420.1 L 28.1 420.1 ZM 28.1 424.1 C 26.7 424.1 25.6 423 25.6 421.6 C 25.6 420.2 26.7 419.1 28.1 419.1 C 29.5 419.1 30.6 420.2 30.6 421.6 C 30.6 423 29.5 424.1 28.1 424.1 L 28.1 424.1 Z" fill="#ffffff"/>
		<path d="M 25 426.4 C 25.2 426.4 25.4 426.4 25.6 426.5 C 26 426.7 26.5 426.9 26.9 427 C 27.1 427.1 27.3 427.3 27.3 427.5 L 27.3 428.9 C 27.3 429 27.4 429.1 27.5 429.1 L 28.8 429.1 C 28.9 429.1 29 429 29 428.9 L 29 428 C 29 427.5 29.3 427 29.8 426.9 C 30.1 426.8 30.4 426.7 30.7 426.5 C 31.2 426.3 31.7 426.3 32.1 426.7 L 32.8 427.4 C 32.9 427.5 33 427.5 33 427.4 L 34 426.4 C 34.1 426.3 34.1 426.2 34 426.2 L 33.3 425.5 C 32.9 425.1 32.9 424.6 33.1 424.1 C 33.2 423.8 33.4 423.5 33.5 423.2 C 33.7 422.7 34.1 422.4 34.6 422.4 L 35.5 422.4 C 35.6 422.4 35.7 422.3 35.7 422.2 L 35.7 420.9 C 35.7 420.8 35.6 420.7 35.5 420.7 L 34.6 420.7 C 34.1 420.7 33.6 420.4 33.5 419.9 C 33.4 419.6 33.3 419.3 33.1 419 C 32.9 418.5 32.9 418 33.3 417.6 L 34 416.9 C 34.1 416.8 34.1 416.7 34 416.7 L 33 415.7 C 32.9 415.6 32.8 415.6 32.8 415.7 L 32.1 416.4 C 31.7 416.7 31.2 416.8 30.7 416.6 C 30.4 416.5 30.1 416.3 29.8 416.2 C 29.3 416 29 415.6 29 415.1 L 29 414.2 C 29 414.1 28.9 414 28.8 414 L 27.5 414 C 27.4 414 27.3 414.1 27.3 414.2 L 27.3 415.1 C 27.3 415.6 27 416.1 26.5 416.2 C 26.2 416.3 25.9 416.4 25.6 416.6 C 25.1 416.8 24.6 416.8 24.2 416.4 L 23.5 415.7 C 23.4 415.6 23.3 415.6 23.3 415.7 L 22.3 416.7 C 22.2 416.8 22.2 416.9 22.3 416.9 L 23 417.6 C 23.4 418 23.4 418.5 23.2 419 C 23.1 419.3 22.9 419.6 22.8 419.9 C 22.6 420.4 22.2 420.7 21.7 420.7 L 20.8 420.7 C 20.7 420.7 20.6 420.8 20.6 420.9 L 20.6 422.2 C 20.6 422.3 20.7 422.4 20.8 422.4 L 21.7 422.4 C 22.2 422.4 22.7 422.7 22.8 423.2 C 22.9 423.5 23 423.8 23.2 424.1 C 23.4 424.6 23.4 425.1 23 425.5 L 22.3 426.2 C 22.2 426.3 22.2 426.4 22.3 426.4 L 23.3 427.4 C 23.4 427.5 23.5 427.5 23.5 427.4 L 24.2 426.7 C 24.4 426.5 24.7 426.4 25 426.4 L 25 426.4 ZM 28.8 430.1 L 27.5 430.1 C 26.9 430.1 26.3 429.6 26.3 428.9 L 26.3 427.9 C 25.9 427.8 25.5 427.6 25.1 427.4 C 25 427.4 24.9 427.4 24.9 427.4 L 24.2 428.1 C 23.8 428.5 23 428.5 22.5 428.1 L 21.5 427.1 C 21 426.6 21 425.9 21.5 425.4 L 22.2 424.7 C 22.3 424.6 22.2 424.5 22.2 424.5 C 22 424.2 21.9 423.8 21.8 423.5 C 21.8 423.4 21.7 423.4 21.6 423.4 L 20.7 423.4 C 20.1 423.4 19.5 422.9 19.5 422.2 L 19.5 420.9 C 19.5 420.3 20 419.7 20.7 419.7 L 21.6 419.7 C 21.7 419.7 21.7 419.6 21.8 419.6 C 21.9 419.2 22.1 418.9 22.2 418.6 C 22.2 418.5 22.2 418.5 22.2 418.4 L 21.5 417.7 C 21 417.2 21 416.5 21.5 416 L 22.5 415 C 22.9 414.6 23.7 414.6 24.2 415 L 24.9 415.7 C 25 415.8 25 415.8 25.1 415.7 C 25.4 415.5 25.8 415.4 26.1 415.3 C 26.2 415.3 26.2 415.2 26.2 415.1 L 26.2 414.2 C 26.2 413.6 26.7 413 27.4 413 L 28.7 413 C 29.3 413 29.9 413.5 29.9 414.2 L 29.9 415.1 C 29.9 415.2 30 415.2 30 415.3 C 30.3 415.4 30.7 415.6 31 415.7 C 31.1 415.7 31.2 415.7 31.2 415.7 L 31.9 415 C 32.3 414.6 33.1 414.6 33.6 415 L 34.6 416 C 35.1 416.5 35.1 417.2 34.6 417.7 L 33.9 418.4 C 33.8 418.5 33.9 418.6 33.9 418.6 C 34.1 418.9 34.2 419.3 34.3 419.6 C 34.3 419.7 34.4 419.7 34.5 419.7 L 35.4 419.7 C 36 419.7 36.6 420.2 36.6 420.9 L 36.6 422.2 C 36.6 422.8 36.1 423.4 35.4 423.4 L 34.5 423.4 C 34.4 423.4 34.4 423.5 34.3 423.5 C 34.2 423.9 34 424.2 33.9 424.5 C 33.9 424.6 33.9 424.6 33.9 424.7 L 34.6 425.4 C 35.1 425.9 35.1 426.6 34.6 427.1 L 33.6 428.1 C 33.2 428.5 32.4 428.5 31.9 428.1 L 31.2 427.4 C 31.1 427.3 31.1 427.3 31 427.4 C 30.7 427.6 30.3 427.7 30 427.8 C 29.9 427.8 29.9 427.9 29.9 428 L 29.9 428.9 C 29.9 429.6 29.4 430.1 28.8 430.1 L 28.8 430.1 Z" fill="#ffffff"/>
	</g>
</svg>