<?xml version="1.0" standalone="no"?>
<!-- Generator: Adobe Fireworks 10, Export SVG Extension by Aaron Beall (http://fireworks.abeall.com) . Version: 0.6.1  -->
<!DOCTYPE svg PUBLIC "-//W3C//DTD SVG 1.1//EN" "http://www.w3.org/Graphics/SVG/1.1/DTD/svg11.dtd">
<svg id="prototipo-bpvc-controle-de-vendasV3.fw-Contatos%20Lista" viewBox="0 0 1366 768" style="background-color:#ffffff" version="1.1"
	xmlns="http://www.w3.org/2000/svg" xmlns:xlink="http://www.w3.org/1999/xlink" xml:space="preserve"
	x="0px" y="0px" width="1366px" height="768px"
>
	<g>
		<g id="123__dollar">
			<path d="M 1209.5 266 C 1205.4 266 1202 269.4 1202 273.5 C 1202 277.6 1205.4 281 1209.5 281 C 1213.6 281 1217 277.6 1217 273.5 C 1217 269.4 1213.6 266 1209.5 266 L 1209.5 266 ZM 1209.5 282 C 1204.8 282 1201 278.2 1201 273.5 C 1201 268.8 1204.8 265 1209.5 265 C 1214.2 265 1218 268.8 1218 273.5 C 1218 278.2 1214.2 282 1209.5 282 L 1209.5 282 Z" fill="#d9a300"/>
		</g>
		<g>
			<path id="noun_49968" d="M 1213.4912 276.3391 C 1213.2601 274.9511 1212.0468 273.9018 1210.6628 273.5137 C 1211.2574 272.8861 1211.574 271.8626 1211.5752 271.1687 C 1211.5769 270.1049 1210.6558 269 1209.4817 269 C 1208.3076 269 1207.3864 270.1049 1207.3882 271.1687 C 1207.3894 271.8657 1207.7084 272.895 1208.3081 273.5219 C 1206.9363 273.9164 1205.738 274.9608 1205.5088 276.3391 C 1205.4138 276.9099 1206.113 277.2888 1206.5657 277.4828 C 1207.4534 277.8634 1208.4673 277.993 1209.4332 277.9998 C 1210.4109 278.0065 1211.4329 277.886 1212.34 277.5219 C 1212.8154 277.3308 1213.5916 276.9429 1213.4912 276.3391 L 1213.4912 276.3391 Z" fill="#d9a300"/>
		</g>
	</g>
</svg>