<?xml version="1.0" standalone="no"?>
<!-- Generator: Adobe Fireworks 10, Export SVG Extension by Aaron Beall (http://fireworks.abeall.com) . Version: 0.6.1  -->
<!DOCTYPE svg PUBLIC "-//W3C//DTD SVG 1.1//EN" "http://www.w3.org/Graphics/SVG/1.1/DTD/svg11.dtd">
<svg id="prototipo-bpvc-controle-de-vendasV3.fw-Lead%20Lista" viewBox="0 0 1366 768" style="background-color:#ffffff" version="1.1"
	xmlns="http://www.w3.org/2000/svg" xmlns:xlink="http://www.w3.org/1999/xlink" xml:space="preserve"
	x="0px" y="0px" width="1366px" height="768px"
>
	<g id="021__arrow2_left">
		<path d="M 1159.8348 105.1149 C 1159.8899 105.0593 1160.0001 104.9481 1160 104.8369 L 1160 101.1675 C 1160.0001 100.5004 1159.5044 100 1158.8434 100 L 1155.2083 100 C 1154.988 100 1154.8228 100.1668 1154.8228 100.3892 C 1154.8228 100.6115 1154.988 100.7784 1155.2083 100.7784 L 1158.8434 100.7784 C 1159.0637 100.7784 1159.229 100.9452 1159.229 101.1675 L 1159.229 104.8369 C 1159.229 105.0593 1159.3943 105.2261 1159.6145 105.2261 C 1159.7246 105.2261 1159.7798 105.1705 1159.8348 105.1149 L 1159.8348 105.1149 Z" fill="#003379"/>
		<path d="M 1152.6747 107.8947 L 1159.2841 101.2231 C 1159.4492 101.0563 1159.4492 100.8339 1159.2841 100.6671 C 1159.1189 100.5004 1158.8986 100.5004 1158.7333 100.6671 L 1152.1239 107.3388 C 1151.9586 107.5056 1151.9587 107.728 1152.1239 107.8947 C 1152.2892 108.0615 1152.5645 108.0059 1152.6747 107.8947 L 1152.6747 107.8947 Z" fill="#003379"/>
	</g>
	<g>
		<path d="M 996.1823 100.7071 C 995.0946 100.7071 994.2631 101.8386 994.2631 103.1822 C 994.2631 104.5257 995.0946 105.6572 996.1823 105.6572 C 997.2699 105.6572 998.1016 104.5257 998.1016 103.1822 C 998.1016 101.8386 997.2699 100.7071 996.1823 100.7071 L 996.1823 100.7071 ZM 996.1823 106.3643 C 994.7749 106.3643 993.6233 104.95 993.6233 103.1822 C 993.6233 101.4143 994.7749 100 996.1823 100 C 997.5898 100 998.7415 101.4143 998.7415 103.1822 C 998.7415 104.95 997.5898 106.3643 996.1823 106.3643 L 996.1823 106.3643 Z" fill="#003379"/>
		<path d="M 1000.021 109.4534 C 999.8291 109.4534 999.701 109.312 999.701 109.0998 L 999.701 108.4151 C 999.701 107.0715 998.7415 106.0107 997.5259 106.0107 L 997.3339 106.0107 C 997.1421 106.0107 997.014 105.8693 997.014 105.6572 C 997.014 105.445 997.1421 105.3036 997.3339 105.3036 L 997.5898 105.3036 C 999.1252 105.3036 1000.4048 106.7179 1000.4048 108.4151 L 1000.4048 109.0998 C 1000.3408 109.312 1000.2128 109.4534 1000.021 109.4534 L 1000.021 109.4534 Z" fill="#003379"/>
		<path d="M 992.3436 109.5625 C 992.1517 109.5625 992.0238 109.4211 992.0238 109.2089 L 992.0238 108.4151 C 992.0238 106.7179 993.3033 105.3036 994.8386 105.3036 L 995.0946 105.3036 C 995.2865 105.3036 995.4147 105.445 995.4147 105.6572 C 995.4147 105.8693 995.2865 106.0107 995.0946 106.0107 L 994.8386 106.0107 C 993.6233 106.0107 992.6636 107.0715 992.6636 108.4151 L 992.6636 109.2089 C 992.6636 109.4211 992.5356 109.5625 992.3436 109.5625 L 992.3436 109.5625 Z" fill="#003379"/>
	</g>
	<path id="Line" d="M 1000 100.5 L 992 109.5 " stroke="#003379" stroke-width="1" fill="none"/>
	<path id="001__arrow_left" d="M 466.5 154.7195 C 466.5 154.7682 466.5 154.8658 466.454 154.9146 L 464.3391 157.1585 C 464.1092 157.4024 463.8333 157.5 463.5115 157.5 C 463.1896 157.5 462.9138 157.3537 462.6839 157.1585 L 460.569 154.9146 C 460.477 154.8171 460.477 154.6707 460.569 154.5732 C 460.6609 154.4756 460.7989 154.4756 460.8908 154.5732 L 463.0057 156.817 C 463.2816 157.1098 463.6954 157.1098 463.9713 156.817 L 466.0862 154.5732 C 466.1782 154.4756 466.3161 154.4756 466.408 154.5732 C 466.5 154.5732 466.5 154.6707 466.5 154.7195 L 466.5 154.7195 Z" fill="#003379"/>
	<g id="018__circle_choose">
		<path d="M 409.5 148 C 405.4 148 402 151.4 402 155.5 C 402 159.6 405.4 163 409.5 163 C 413.6 163 417 159.6 417 155.5 C 417 151.4 413.6 148 409.5 148 L 409.5 148 ZM 409.5 164 C 404.8 164 401 160.2 401 155.5 C 401 150.8 404.8 147 409.5 147 C 414.2 147 418 150.8 418 155.5 C 418 160.2 414.2 164 409.5 164 L 409.5 164 Z" fill="#00a8cb"/>
		<path d="M 408.7 158 C 408.3 158 408 157.9 407.8 157.6 L 406.7 156.5 C 406.5 156.3 406.5 156 406.7 155.8 C 406.9 155.6 407.2 155.6 407.4 155.8 L 408.5 156.9 C 408.6 157 408.6 157 408.7 157 L 408.7 157 C 408.8 157 408.9 157 408.9 156.9 L 411.6 154.2 C 411.8 154 412.1 154 412.3 154.2 C 412.5 154.4 412.5 154.7 412.3 154.9 L 409.6 157.6 C 409.4 157.8 409.1 158 408.7 158 L 408.7 158 L 408.7 158 Z" fill="#00a8cb"/>
	</g>
	<g>
		<g id="123__dollar">
			<path d="M 1209.5 266 C 1205.4 266 1202 269.4 1202 273.5 C 1202 277.6 1205.4 281 1209.5 281 C 1213.6 281 1217 277.6 1217 273.5 C 1217 269.4 1213.6 266 1209.5 266 L 1209.5 266 ZM 1209.5 282 C 1204.8 282 1201 278.2 1201 273.5 C 1201 268.8 1204.8 265 1209.5 265 C 1214.2 265 1218 268.8 1218 273.5 C 1218 278.2 1214.2 282 1209.5 282 L 1209.5 282 Z" fill="#777777"/>
		</g>
		<g>
			<path d="M 1207.8165 274.7484 C 1208.9153 276.2998 1211.5933 277.7866 1212.2395 277.4526 C 1212.886 277.1186 1213.0244 276.3968 1212.9967 276.0628 C 1212.969 275.7288 1211.5009 274.7053 1211.1315 274.5114 C 1210.7622 274.3174 1210.3374 274.9423 1210.1343 275.2117 C 1209.9219 275.4702 1209.1093 274.6837 1208.7584 274.2851 C 1208.7584 274.2851 1207.835 273.0785 1208.0474 272.8199 C 1208.2598 272.5613 1208.7861 272.0442 1208.6014 271.624 C 1208.4167 271.2038 1207.4841 269.5231 1207.1887 269.5016 C 1206.9023 269.48 1206.293 269.674 1206.0344 270.4389 C 1205.7759 271.2038 1207.0132 274.1235 1208.389 275.3409 " fill="#777777"/>
		</g>
	</g>
</svg>