<?xml version="1.0" standalone="no"?>
<!-- Generator: Adobe Fireworks 10, Export SVG Extension by Aaron Beall (http://fireworks.abeall.com) . Version: 0.6.1  -->
<!DOCTYPE svg PUBLIC "-//W3C//DTD SVG 1.1//EN" "http://www.w3.org/Graphics/SVG/1.1/DTD/svg11.dtd">
<svg id="prototipo-bpvc-controle-de-vendasV3.fw-Lead%20Lista" viewBox="0 0 1366 768" style="background-color:#ffffff" version="1.1"
	xmlns="http://www.w3.org/2000/svg" xmlns:xlink="http://www.w3.org/1999/xlink" xml:space="preserve"
	x="0px" y="0px" width="1366px" height="768px"
>
	<g id="026__logout">
		<g>
			<path d="M 1280.7694 38.2667 C 1280.6758 38.2667 1280.4883 38.2667 1280.3947 38.1733 C 1280.2075 37.9867 1280.2075 37.7067 1280.3947 37.52 L 1282.8293 35.0933 L 1280.3947 32.6667 C 1280.2075 32.48 1280.2075 32.2 1280.3947 32.0133 C 1280.582 31.8267 1280.8628 31.8267 1281.0503 32.0133 L 1283.8596 34.8133 C 1284.0468 35 1284.0468 35.28 1283.8596 35.4667 L 1281.0503 38.2667 C 1281.0503 38.2667 1280.8628 38.2667 1280.7694 38.2667 L 1280.7694 38.2667 Z" fill="#003379"/>
			<path d="M 1283.1105 35.4667 L 1275.6189 35.4667 C 1275.3378 35.4667 1275.1506 35.28 1275.1506 35 C 1275.1506 34.72 1275.3378 34.5333 1275.6189 34.5333 L 1283.1105 34.5333 C 1283.3914 34.5333 1283.5785 34.72 1283.5785 35 C 1283.5785 35.28 1283.3914 35.4667 1283.1105 35.4667 L 1283.1105 35.4667 Z" fill="#003379"/>
		</g>
		<path d="M 1277.96 42 L 1272.3411 42 C 1271.03 42 1270 40.9733 1270 39.6667 L 1270 30.3333 C 1270 29.0267 1271.03 28 1272.3411 28 L 1277.96 28 C 1278.241 28 1278.4282 28.1867 1278.4282 28.4667 C 1278.4282 28.7467 1278.241 28.9333 1277.96 28.9333 L 1272.3411 28.9333 C 1271.5919 28.9333 1270.9365 29.5867 1270.9365 30.3333 L 1270.9365 39.6667 C 1270.9365 40.4133 1271.5919 41.0667 1272.3411 41.0667 L 1277.96 41.0667 C 1278.241 41.0667 1278.4282 41.2533 1278.4282 41.5333 C 1278.4282 41.8133 1278.241 42 1277.96 42 L 1277.96 42 Z" fill="#003379"/>
	</g>
	<g id="089__filter">
		<path d="M 798.3846 29.8324 C 798.1077 29.8324 797.9231 30.0173 797.9231 30.2948 L 797.9231 31.7746 C 797.9231 31.8671 797.9231 31.9595 798.0154 32.052 L 801.7076 36.3988 C 801.8923 36.6763 802.0769 36.9538 802.0769 37.3237 L 802.0769 43.5202 C 802.0769 43.8902 802.4462 44.0751 802.723 43.8902 L 803.6461 43.4278 C 803.8308 43.3353 803.9231 43.1503 803.9231 43.0578 L 803.9231 37.3237 C 803.9231 36.9538 804.0154 36.6763 804.2924 36.3988 L 807.9846 32.052 C 808.0769 31.9595 808.0769 31.8671 808.0769 31.7746 L 808.0769 30.2948 C 808.0769 30.0173 807.8923 29.8324 807.6154 29.8324 L 798.3846 29.8324 L 798.3846 29.8324 ZM 802.5385 45 C 801.7999 45 801.1538 44.3526 801.1538 43.6127 L 801.1538 37.4162 C 801.1538 37.3237 801.1538 37.2312 801.0615 37.1387 L 797.3693 32.7919 C 797.1846 32.5144 797 32.237 797 31.8671 L 797 30.3873 C 797 29.6474 797.6461 29 798.3846 29 L 807.6154 29 C 808.3539 29 809 29.6474 809 30.3873 L 809 31.8671 C 809 32.237 808.9077 32.5144 808.6307 32.7919 L 804.9385 37.1387 C 804.8462 37.1387 804.8462 37.2312 804.8462 37.3237 L 804.8462 43.0578 C 804.8462 43.6127 804.5692 44.0751 804.1077 44.2601 L 803.1846 44.7225 C 803 44.9075 802.723 45 802.5385 45 L 802.5385 45 Z" fill="#003379"/>
		<rect x="797.4615" y="31.6821" width="11.1693" height="0.9249" fill="#003379"/>
	</g>
	<g id="095__search">
		<path d="M 514.2633 32.1429 C 511.4164 32.1429 509.1388 34.4286 509.1388 37.2857 C 509.1388 40.1429 511.4164 42.4286 514.2633 42.4286 C 517.1102 42.4286 519.3879 40.1429 519.3879 37.2857 C 519.3879 34.4286 517.1102 32.1429 514.2633 32.1429 L 514.2633 32.1429 ZM 514.2633 43.5714 C 510.847 43.5714 508 40.7143 508 37.2857 C 508 33.8571 510.847 31 514.2633 31 C 517.6797 31 520.5267 33.8571 520.5267 37.2857 C 520.5267 40.7143 517.6797 43.5714 514.2633 43.5714 L 514.2633 43.5714 Z" fill="#003379"/>
		<path d="M 518.8185 41.0571 L 523.8292 46.0857 C 524.0569 46.3143 524.0569 46.6572 523.8292 46.8857 C 523.7153 47 523.4875 47 523.3735 47 C 523.2598 47 523.0319 47 522.9181 46.8857 L 517.9075 41.8571 L 518.8185 41.0571 L 518.8185 41.0571 Z" fill="#003379"/>
	</g>
</svg>