<?xml version="1.0" standalone="no"?>
<!-- Generator: Adobe Fireworks 10, Export SVG Extension by Aaron Beall (http://fireworks.abeall.com) . Version: 0.6.1  -->
<!DOCTYPE svg PUBLIC "-//W3C//DTD SVG 1.1//EN" "http://www.w3.org/Graphics/SVG/1.1/DTD/svg11.dtd">
<svg id="prototipo-bpvc-controle-de-vendasV3.fw-Contato%20Novo%201" viewBox="0 0 1366 1179" style="background-color:#ffffff" version="1.1"
	xmlns="http://www.w3.org/2000/svg" xmlns:xlink="http://www.w3.org/1999/xlink" xml:space="preserve"
	x="0px" y="0px" width="1366px" height="1179px"
>
	<defs>
		<radialGradient id="gradient1" cx="50%" cy="50%" r="50%">
			<stop stop-color="#ffffff" stop-opacity="1" offset="0%"/>
			<stop stop-color="#ffffff" stop-opacity="1" offset="54.4444%"/>
			<stop stop-color="#eeeeee" stop-opacity="1" offset="100%"/>
		</radialGradient>
		<radialGradient id="gradient2" cx="50%" cy="50%" r="50%">
			<stop stop-color="#ffffff" stop-opacity="1" offset="0%"/>
			<stop stop-color="#ffffff" stop-opacity="1" offset="54.4444%"/>
			<stop stop-color="#eeeeee" stop-opacity="1" offset="100%"/>
		</radialGradient>
	</defs>
	<g>
		<path id="Ellipse" d="M 603 882 C 603 878.6862 605.6862 876 609 876 C 612.3138 876 615 878.6862 615 882 C 615 885.3138 612.3138 888 609 888 C 605.6862 888 603 885.3138 603 882 Z" stroke="#333333" stroke-width="1" fill="url(#gradient1)"/>
		<path id="Ellipse2" d="M 606 882 C 606 880.3431 607.3431 879 609 879 C 610.6569 879 612 880.3431 612 882 C 612 883.6569 610.6569 885 609 885 C 607.3431 885 606 883.6569 606 882 Z" fill="#555555"/>
	</g>
	<path id="Ellipse3" d="M 673 882 C 673 878.6862 675.6862 876 679 876 C 682.3138 876 685 878.6862 685 882 C 685 885.3138 682.3138 888 679 888 C 675.6862 888 673 885.3138 673 882 Z" stroke="#333333" stroke-width="1" fill="url(#gradient2)"/>
	<g id="065__calendar">
		<g>
			<path d="M 854.3438 598.8667 C 853.5936 598.8667 852.9375 599.52 852.9375 600.2667 L 852.9375 608.6666 C 852.9375 609.4133 853.5936 610.0667 854.3438 610.0667 L 864.6563 610.0667 C 865.4064 610.0667 866.0625 609.4133 866.0625 608.6666 L 866.0625 600.2667 C 866.0625 599.52 865.4064 598.8667 864.6563 598.8667 L 854.3438 598.8667 L 854.3438 598.8667 ZM 864.6563 611 L 854.3438 611 C 853.0311 611 852 609.9734 852 608.6666 L 852 600.2667 C 852 598.96 853.0311 597.9333 854.3438 597.9333 L 864.6563 597.9333 C 865.9689 597.9333 867 598.96 867 600.2667 L 867 608.6666 C 867 609.9734 865.9689 611 864.6563 611 L 864.6563 611 Z" fill="#003379"/>
			<g>
				<path d="M 856.6875 599.8 C 856.4061 599.8 856.2188 599.6133 856.2188 599.3333 L 856.2188 597.4667 C 856.2188 597.1866 856.4061 597 856.6875 597 C 856.9689 597 857.1563 597.1866 857.1563 597.4667 L 857.1563 599.3333 C 857.1563 599.6133 856.9689 599.8 856.6875 599.8 L 856.6875 599.8 Z" fill="#003379"/>
				<path d="M 862.3125 599.8 C 862.0311 599.8 861.8438 599.6133 861.8438 599.3333 L 861.8438 597.4667 C 861.8438 597.1866 862.0311 597 862.3125 597 C 862.5939 597 862.7813 597.1866 862.7813 597.4667 L 862.7813 599.3333 C 862.7813 599.6133 862.5939 599.8 862.3125 599.8 L 862.3125 599.8 Z" fill="#003379"/>
			</g>
			<path d="M 866.0625 602.6 L 852.9375 602.6 C 852.6561 602.6 852.4688 602.4133 852.4688 602.1333 C 852.4688 601.8534 852.6561 601.6666 852.9375 601.6666 L 866.0625 601.6666 C 866.3439 601.6666 866.5313 601.8534 866.5313 602.1333 C 866.5313 602.4133 866.3439 602.6 866.0625 602.6 L 866.0625 602.6 Z" fill="#003379"/>
		</g>
		<g>
			<path d="M 855.2813 608.6666 C 854.9999 608.6666 854.8125 608.5734 854.6251 608.3867 C 854.4374 608.2 854.3438 607.92 854.3438 607.7333 C 854.3438 607.4534 854.4374 607.2667 854.6251 607.08 C 854.9999 606.7067 855.5626 606.7067 855.9374 607.08 C 856.1251 607.2667 856.2188 607.5466 856.2188 607.7333 C 856.2188 607.92 856.1251 608.2 855.9374 608.3867 C 855.75 608.5734 855.5626 608.6666 855.2813 608.6666 L 855.2813 608.6666 Z" fill="#003379"/>
			<path d="M 855.2813 605.8667 C 854.9999 605.8667 854.8125 605.7733 854.6251 605.5867 C 854.4374 605.4 854.3438 605.2133 854.3438 604.9333 C 854.3438 604.6533 854.4374 604.4667 854.6251 604.28 C 854.9999 603.9067 855.5626 603.9067 855.9374 604.28 C 856.1251 604.4667 856.2188 604.7467 856.2188 604.9333 C 856.2188 605.12 856.1251 605.4 855.9374 605.5867 C 855.75 605.7733 855.5626 605.8667 855.2813 605.8667 L 855.2813 605.8667 Z" fill="#003379"/>
			<path d="M 858.0938 608.6666 C 857.8124 608.6666 857.625 608.5734 857.4376 608.3867 C 857.2499 608.2 857.1563 607.92 857.1563 607.7333 C 857.1563 607.5466 857.2499 607.2667 857.4376 607.08 C 857.8124 606.7067 858.3751 606.7067 858.7499 607.08 C 858.9376 607.2667 859.0313 607.5466 859.0313 607.7333 C 859.0313 607.92 858.9376 608.2 858.7499 608.3867 C 858.5625 608.5734 858.3751 608.6666 858.0938 608.6666 L 858.0938 608.6666 Z" fill="#003379"/>
			<path d="M 858.0938 605.8667 C 857.8124 605.8667 857.625 605.7733 857.4376 605.5867 C 857.2499 605.4 857.1563 605.12 857.1563 604.9333 C 857.1563 604.7467 857.2499 604.4667 857.4376 604.28 C 857.8124 603.9067 858.3751 603.9067 858.7499 604.28 C 858.9376 604.4667 859.0313 604.7467 859.0313 604.9333 C 859.0313 605.12 858.9376 605.4 858.7499 605.5867 C 858.5625 605.7733 858.3751 605.8667 858.0938 605.8667 L 858.0938 605.8667 Z" fill="#003379"/>
			<path d="M 860.9063 608.6666 C 860.6249 608.6666 860.4375 608.5734 860.2501 608.3867 C 860.0624 608.2 859.9688 607.92 859.9688 607.7333 C 859.9688 607.5466 860.0624 607.2667 860.2501 607.08 C 860.6249 606.7067 861.1876 606.7067 861.5624 607.08 C 861.7501 607.2667 861.8438 607.4534 861.8438 607.7333 C 861.8438 608.0133 861.7501 608.2 861.5624 608.3867 C 861.375 608.5734 861.1876 608.6666 860.9063 608.6666 L 860.9063 608.6666 Z" fill="#003379"/>
			<path d="M 860.9063 605.8667 C 860.6249 605.8667 860.4375 605.7733 860.2501 605.5867 C 860.0624 605.4 859.9688 605.12 859.9688 604.9333 C 859.9688 604.7467 860.0624 604.4667 860.2501 604.28 C 860.6249 603.9067 861.1876 603.9067 861.5624 604.28 C 861.7501 604.4667 861.8438 604.7467 861.8438 604.9333 C 861.8438 605.2133 861.7501 605.4 861.5624 605.5867 C 861.375 605.7733 861.1876 605.8667 860.9063 605.8667 L 860.9063 605.8667 Z" fill="#003379"/>
			<path d="M 863.7188 608.6666 C 863.4374 608.6666 863.25 608.5734 863.0626 608.3867 C 862.8749 608.2 862.7813 607.92 862.7813 607.7333 C 862.7813 607.4534 862.8749 607.2667 863.0626 607.08 C 863.4374 606.7067 864.0001 606.7067 864.3749 607.08 C 864.5626 607.2667 864.6563 607.5466 864.6563 607.7333 C 864.6563 607.92 864.5626 608.2 864.3749 608.3867 C 864.1875 608.5734 864.0001 608.6666 863.7188 608.6666 L 863.7188 608.6666 Z" fill="#003379"/>
			<path d="M 863.7188 605.8667 C 863.4374 605.8667 863.25 605.7733 863.0626 605.5867 C 862.8749 605.4 862.7813 605.12 862.7813 604.9333 C 862.7813 604.7467 862.8749 604.4667 863.0626 604.28 C 863.4374 603.9067 864.0001 603.9067 864.3749 604.28 C 864.5626 604.4667 864.6563 604.7467 864.6563 604.9333 C 864.6563 605.2133 864.5626 605.4 864.3749 605.5867 C 864.1875 605.7733 864.0001 605.8667 863.7188 605.8667 L 863.7188 605.8667 Z" fill="#003379"/>
		</g>
	</g>
</svg>