<?xml version="1.0" standalone="no"?>
<!-- Generator: Adobe Fireworks 10, Export SVG Extension by Aaron Beall (http://fireworks.abeall.com) . Version: 0.6.1  -->
<!DOCTYPE svg PUBLIC "-//W3C//DTD SVG 1.1//EN" "http://www.w3.org/Graphics/SVG/1.1/DTD/svg11.dtd">
<svg id="prototipo-bpvc-controle-de-vendasV3.fw-Tipo%20Usu%E1rio%20Novo" viewBox="0 0 1366 836" style="background-color:#ffffff" version="1.1"
	xmlns="http://www.w3.org/2000/svg" xmlns:xlink="http://www.w3.org/1999/xlink" xml:space="preserve"
	x="0px" y="0px" width="1366px" height="836px"
>
	<g>
		<path d="M 1152.4286 245.6965 L 1144.6572 245.6965 C 1144.3143 245.6965 1144.0857 245.4776 1144.0857 245.1492 C 1144.0857 244.8209 1144.3143 244.602 1144.6572 244.602 L 1152.4286 244.602 C 1152.7715 244.602 1153 244.8209 1153 245.1492 C 1153 245.4776 1152.7715 245.6965 1152.4286 245.6965 L 1152.4286 245.6965 Z" fill="#003379"/>
		<path d="M 1152.4286 250.0746 L 1144.6572 250.0746 C 1144.3143 250.0746 1144.0857 249.8557 1144.0857 249.5273 C 1144.0857 249.199 1144.3143 248.9801 1144.6572 248.9801 L 1152.4286 248.9801 C 1152.7715 248.9801 1153 249.199 1153 249.5273 C 1153 249.8557 1152.7715 250.0746 1152.4286 250.0746 L 1152.4286 250.0746 Z" fill="#003379"/>
		<path d="M 1152.4286 254.4527 L 1144.6572 254.4527 C 1144.3143 254.4527 1144.0857 254.2338 1144.0857 253.9055 C 1144.0857 253.5771 1144.3143 253.3582 1144.6572 253.3582 L 1152.4286 253.3582 C 1152.7715 253.3582 1153 253.5771 1153 253.9055 C 1153 254.2338 1152.7715 254.4527 1152.4286 254.4527 L 1152.4286 254.4527 Z" fill="#003379"/>
		<path d="M 1140.3143 246.2438 C 1140.0857 246.2438 1139.8572 246.1343 1139.6287 246.0248 L 1139.1714 245.587 C 1138.9429 245.3682 1138.9429 245.0398 1139.1714 244.8209 C 1139.4 244.602 1139.7429 244.602 1139.9714 244.8209 L 1140.2001 245.0398 L 1141 244.1642 C 1141.2285 243.9453 1141.5714 243.9453 1141.8 244.1642 C 1142.0286 244.3831 1142.0286 244.7114 1141.8 244.9303 L 1140.7715 245.9154 C 1140.7715 246.1343 1140.543 246.2438 1140.3143 246.2438 L 1140.3143 246.2438 L 1140.3143 246.2438 Z" fill="#003379"/>
		<path d="M 1140.3143 250.6219 C 1140.0857 250.6219 1139.8572 250.5124 1139.6287 250.403 L 1139.1714 249.9651 C 1138.9429 249.7463 1138.9429 249.4179 1139.1714 249.199 C 1139.4 248.9801 1139.7429 248.9801 1139.9714 249.199 L 1140.2001 249.4179 L 1141 248.5423 C 1141.2285 248.3234 1141.5714 248.3234 1141.8 248.5423 C 1142.0286 248.7612 1142.0286 249.0895 1141.8 249.3084 L 1140.7715 250.2935 C 1140.7715 250.5124 1140.543 250.6219 1140.3143 250.6219 L 1140.3143 250.6219 L 1140.3143 250.6219 Z" fill="#003379"/>
		<path d="M 1140.3143 255 C 1140.0857 255 1139.8572 254.8905 1139.6287 254.7811 L 1139.1714 254.3433 C 1138.9429 254.1244 1138.9429 253.796 1139.1714 253.5771 C 1139.4 253.3582 1139.7429 253.3582 1139.9714 253.5771 L 1140.2001 253.796 L 1141 252.9204 C 1141.2285 252.7015 1141.5714 252.7015 1141.8 252.9204 C 1142.0286 253.1393 1142.0286 253.4677 1141.8 253.6866 L 1140.7715 254.6717 C 1140.7715 254.8905 1140.543 255 1140.3143 255 L 1140.3143 255 L 1140.3143 255 Z" fill="#003379"/>
	</g>
</svg>