<?xml version="1.0" standalone="no"?>
<!-- Generator: Adobe Fireworks 10, Export SVG Extension by Aaron Beall (http://fireworks.abeall.com) . Version: 0.6.1  -->
<!DOCTYPE svg PUBLIC "-//W3C//DTD SVG 1.1//EN" "http://www.w3.org/Graphics/SVG/1.1/DTD/svg11.dtd">
<svg id="prototipo-bpvc-controle-de-vendasV3.fw-Fila" viewBox="0 0 1366 768" style="background-color:#ffffff" version="1.1"
	xmlns="http://www.w3.org/2000/svg" xmlns:xlink="http://www.w3.org/1999/xlink" xml:space="preserve"
	x="0px" y="0px" width="1366px" height="768px"
>
	<g id="104__VIP">
		<g>
			<path d="M 982.7 317.2 L 982.8 317.6 C 982.8 317.7 983 317.8 983.1 317.8 L 983.8 317.8 C 983.9 317.8 984.1 317.7 984.1 317.6 L 984.2 317.2 L 982.7 317.2 L 982.7 317.2 ZM 983.9 318.8 L 983.2 318.8 C 982.6 318.8 982.1 318.4 981.9 317.9 L 981.7 317.2 C 981.6 317 981.7 316.7 981.8 316.5 C 981.9 316.3 982.2 316.2 982.4 316.2 L 984.7 316.2 C 984.9 316.2 985.2 316.3 985.3 316.5 C 985.4 316.7 985.5 317 985.4 317.2 L 985.2 317.9 C 984.9 318.5 984.4 318.8 983.9 318.8 L 983.9 318.8 Z" fill="#003379"/>
			<path d="M 982.7 322.6 L 983.5 323.2 L 984.3 322.6 L 983.5 319 L 982.7 322.6 L 982.7 322.6 ZM 984.4 318.2 L 985.4 322.6 C 985.4 322.8 985.4 323 985.2 323.1 L 983.8 324 C 983.7 324.1 983.6 324.1 983.5 324.1 C 983.4 324.1 983.3 324.1 983.2 324 L 981.8 323.1 C 981.6 323 981.5 322.8 981.6 322.6 L 982.6 318.2 L 984.4 318.2 L 984.4 318.2 Z" fill="#003379"/>
		</g>
		<g>
			<path d="M 983.5 309 C 981.8 309 980.5 310.6 980.5 312.5 C 980.5 314.4 981.8 316 983.5 316 C 985.2 316 986.5 314.4 986.5 312.5 C 986.5 310.6 985.2 309 983.5 309 L 983.5 309 ZM 983.5 317 C 981.3 317 979.5 315 979.5 312.5 C 979.5 310 981.3 308 983.5 308 C 985.7 308 987.5 310 987.5 312.5 C 987.5 315 985.7 317 983.5 317 L 983.5 317 Z" fill="#003379"/>
			<path d="M 989.5 323.8 C 989.2 323.8 989 323.6 989 323.3 L 989 319.9 C 989 318 987.5 316.5 985.6 316.5 L 985.2 316.5 C 984.9 316.5 984.7 316.3 984.7 316 C 984.7 315.7 984.9 315.5 985.2 315.5 L 985.6 315.5 C 988 315.5 990 317.5 990 319.9 L 990 323.3 C 990 323.6 989.8 323.8 989.5 323.8 L 989.5 323.8 Z" fill="#003379"/>
			<path d="M 977.5 323.8 C 977.2 323.8 977 323.6 977 323.3 L 977 319.9 C 977 317.5 979 315.5 981.4 315.5 L 981.8 315.5 C 982.1 315.5 982.3 315.7 982.3 316 C 982.3 316.3 982.1 316.5 981.8 316.5 L 981.4 316.5 C 979.5 316.5 978 318 978 319.9 L 978 323.3 C 978 323.6 977.8 323.8 977.5 323.8 L 977.5 323.8 Z" fill="#003379"/>
		</g>
	</g>
	<g id="123__dollar">
		<path d="M 1235.5 307 C 1231.4 307 1228 310.4 1228 314.5 C 1228 318.6 1231.4 322 1235.5 322 C 1239.6 322 1243 318.6 1243 314.5 C 1243 310.4 1239.6 307 1235.5 307 L 1235.5 307 ZM 1235.5 323 C 1230.8 323 1227 319.2 1227 314.5 C 1227 309.8 1230.8 306 1235.5 306 C 1240.2 306 1244 309.8 1244 314.5 C 1244 319.2 1240.2 323 1235.5 323 L 1235.5 323 Z" fill="#008c00"/>
		<g>
			<path d="M 1235.5 318.6 C 1233.8 318.6 1232.4 317.6 1232.4 316.3 C 1232.4 316 1232.6 315.8 1232.9 315.8 C 1233.2 315.8 1233.4 316 1233.4 316.3 C 1233.4 317 1234.4 317.6 1235.5 317.6 C 1236.6 317.6 1237.6 317 1237.6 316.3 C 1237.6 315.6 1236.6 315 1235.5 315 C 1233.8 315 1232.4 314 1232.4 312.7 C 1232.4 311.4 1233.8 310.4 1235.5 310.4 C 1237.2 310.4 1238.6 311.4 1238.6 312.7 C 1238.6 313 1238.4 313.2 1238.1 313.2 C 1237.8 313.2 1237.6 313 1237.6 312.7 C 1237.6 312 1236.6 311.4 1235.5 311.4 C 1234.4 311.4 1233.4 312 1233.4 312.7 C 1233.4 313.4 1234.4 314 1235.5 314 C 1237.2 314 1238.6 315 1238.6 316.3 C 1238.6 317.6 1237.2 318.6 1235.5 318.6 L 1235.5 318.6 Z" fill="#008c00"/>
			<path d="M 1235.5 319.5 C 1235.2 319.5 1235 319.3 1235 319 L 1235 310 C 1235 309.7 1235.2 309.5 1235.5 309.5 C 1235.8 309.5 1236 309.7 1236 310 L 1236 319 C 1236 319.3 1235.8 319.5 1235.5 319.5 L 1235.5 319.5 Z" fill="#008c00"/>
		</g>
	</g>
	<g id="017__circle_close">
		<path d="M 1235.5 391 C 1231.4 391 1228 394.4 1228 398.5 C 1228 402.6 1231.4 406 1235.5 406 C 1239.6 406 1243 402.6 1243 398.5 C 1243 394.4 1239.6 391 1235.5 391 L 1235.5 391 ZM 1235.5 407 C 1230.8 407 1227 403.2 1227 398.5 C 1227 393.8 1230.8 390 1235.5 390 C 1240.2 390 1244 393.8 1244 398.5 C 1244 403.2 1240.2 407 1235.5 407 L 1235.5 407 Z" fill="#b91e46"/>
		<path d="M 1237.6 401.1 C 1237.5 401.1 1237.3 401.1 1237.2 401 L 1233 396.8 C 1232.8 396.6 1232.8 396.3 1233 396.1 C 1233.2 395.9 1233.5 395.9 1233.7 396.1 L 1237.9 400.3 C 1238.1 400.5 1238.1 400.8 1237.9 401 C 1237.8 401 1237.7 401.1 1237.6 401.1 L 1237.6 401.1 Z" fill="#b91e46"/>
		<path d="M 1233.4 401.1 C 1233.3 401.1 1233.1 401.1 1233 401 C 1232.8 400.8 1232.8 400.5 1233 400.3 L 1237.2 396.1 C 1237.4 395.9 1237.7 395.9 1237.9 396.1 C 1238.1 396.3 1238.1 396.6 1237.9 396.8 L 1233.7 401 C 1233.7 401 1233.5 401.1 1233.4 401.1 L 1233.4 401.1 Z" fill="#b91e46"/>
	</g>
	<path id="Ellipse" d="M 998 443 C 998 439.6862 1000.6863 437 1004 437 C 1007.3137 437 1010 439.6862 1010 443 C 1010 446.3138 1007.3137 449 1004 449 C 1000.6863 449 998 446.3138 998 443 Z" fill="#008c00"/>
	<path d="M 1235.5 559 C 1231.4 559 1228 562.4 1228 566.5 C 1228 570.6 1231.4 574 1235.5 574 C 1239.6 574 1243 570.6 1243 566.5 C 1243 562.4 1239.6 559 1235.5 559 L 1235.5 559 ZM 1235.5 575 C 1230.8 575 1227 571.2 1227 566.5 C 1227 561.8 1230.8 558 1235.5 558 C 1240.2 558 1244 561.8 1244 566.5 C 1244 571.2 1240.2 575 1235.5 575 L 1235.5 575 Z" fill="#aaaaaa"/>
	<path id="Line" d="M 1241.5 561.5 L 1230.5 571.5 " stroke="#aaaaaa" stroke-width="1" fill="#aaaaaa"/>
</svg>