<?xml version="1.0" standalone="no"?>
<!-- Generator: Adobe Fireworks 10, Export SVG Extension by Aaron Beall (http://fireworks.abeall.com) . Version: 0.6.1  -->
<!DOCTYPE svg PUBLIC "-//W3C//DTD SVG 1.1//EN" "http://www.w3.org/Graphics/SVG/1.1/DTD/svg11.dtd">
<svg id="prototipo-bpvc-controle-de-vendasV3.fw-Contratos%20Lista" viewBox="0 0 1366 768" style="background-color:#ffffff" version="1.1"
	xmlns="http://www.w3.org/2000/svg" xmlns:xlink="http://www.w3.org/1999/xlink" xml:space="preserve"
	x="0px" y="0px" width="1366px" height="768px"
>
	<g id="016__circle_minus">
		<path d="M 1209.5 392 C 1205.4 392 1202 395.4 1202 399.5 C 1202 403.6 1205.4 407 1209.5 407 C 1213.6 407 1217 403.6 1217 399.5 C 1217 395.4 1213.6 392 1209.5 392 L 1209.5 392 ZM 1209.5 408 C 1204.8 408 1201 404.2 1201 399.5 C 1201 394.8 1204.8 391 1209.5 391 C 1214.2 391 1218 394.8 1218 399.5 C 1218 404.2 1214.2 408 1209.5 408 L 1209.5 408 Z" fill="#000000"/>
		<path d="M 1212 400 L 1207 400 C 1206.7 400 1206.5 399.8 1206.5 399.5 C 1206.5 399.2 1206.7 399 1207 399 L 1212 399 C 1212.3 399 1212.5 399.2 1212.5 399.5 C 1212.5 399.8 1212.3 400 1212 400 L 1212 400 Z" fill="#000000"/>
	</g>
</svg>