<?xml version="1.0" standalone="no"?>
<!-- Generator: Adobe Fireworks 10, Export SVG Extension by Aaron Beall (http://fireworks.abeall.com) . Version: 0.6.1  -->
<!DOCTYPE svg PUBLIC "-//W3C//DTD SVG 1.1//EN" "http://www.w3.org/Graphics/SVG/1.1/DTD/svg11.dtd">
<svg id="prototipo-bpvc-controle-de-vendasV3.fw-Contrato%20Novo%202" viewBox="0 0 1366 1500" style="background-color:#ffffff" version="1.1"
	xmlns="http://www.w3.org/2000/svg" xmlns:xlink="http://www.w3.org/1999/xlink" xml:space="preserve"
	x="0px" y="0px" width="1366px" height="1500px"
>
	<g>
		<path d="M 1312.0001 522 L 1312.0001 523 C 1312.0001 524.1046 1312.8955 525 1313.9999 525 L 1320.9999 525 C 1322.1046 525 1323 524.1046 1323 523 L 1323 516 C 1323 514.8954 1322.1046 514 1320.9999 514 L 1319.9999 514 L 1319.9999 513 C 1319.9999 511.8954 1319.1045 511 1318.0001 511 L 1311.0001 511 C 1309.8954 511 1309 511.8954 1309 513 L 1309 520 C 1309 521.1046 1309.8954 522 1311.0001 522 L 1312.0001 522 Z" stroke="#003379" stroke-width="1" fill="none"/>
		<rect x="1312" y="514" width="11" height="11" stroke="#003379" stroke-width="1" fill="none" rx="2" ry="2"/>
	</g>
</svg>