<?xml version="1.0" encoding="utf-8"?>
<!-- Generator: Adobe Illustrator 16.0.0, SVG Export Plug-In . SVG Version: 6.00 Build 0)  -->
<!DOCTYPE svg PUBLIC "-//W3C//DTD SVG 1.1//EN" "http://www.w3.org/Graphics/SVG/1.1/DTD/svg11.dtd">
<svg version="1.1" id="Layer_1" xmlns="http://www.w3.org/2000/svg" xmlns:xlink="http://www.w3.org/1999/xlink" x="0px" y="0px"
	 width="32px" height="32px" viewBox="0 0 32 32" enable-background="new 0 0 32 32" xml:space="preserve">
<path fill-rule="evenodd" clip-rule="evenodd" d="M18.931,2.257c0-0.151-0.135-0.286-0.286-0.286h-5.289
	c-0.151,0-0.286,0.135-0.286,0.286v2.729h5.861V2.257z M9.784,29.879c0,0.067,0.068,0.118,0.102,0.118h12.228
	c0.033,0,0.102-0.051,0.102-0.103L24.472,6.99H7.528L9.784,29.879z M27.808,6.99h-1.349l-2.29,23.091
	C24.084,31.158,23.176,32,22.113,32H9.886c-1.061,0-1.971-0.842-2.055-1.919L5.54,6.99H4.193c-0.54,0-0.978-0.455-0.978-1.011
	c0-0.539,0.438-0.994,0.978-0.994h6.922V2.257c0-1.263,1.011-2.257,2.24-2.257h5.289c1.229,0,2.238,0.994,2.238,2.257v2.729h6.925
	c0.538,0,0.977,0.455,0.977,0.994C28.784,6.535,28.346,6.99,27.808,6.99z"/>
</svg>
