<?xml version="1.0" encoding="utf-8"?>
<!-- Generator: Adobe Illustrator 16.0.0, SVG Export Plug-In . SVG Version: 6.00 Build 0)  -->
<!DOCTYPE svg PUBLIC "-//W3C//DTD SVG 1.1//EN" "http://www.w3.org/Graphics/SVG/1.1/DTD/svg11.dtd">
<svg version="1.1" id="Layer_1" xmlns="http://www.w3.org/2000/svg" xmlns:xlink="http://www.w3.org/1999/xlink" x="0px" y="0px"
	 width="32px" height="32px" viewBox="0 0 32 32" enable-background="new 0 0 32 32" xml:space="preserve">
<g>
	<path fill-rule="evenodd" clip-rule="evenodd" d="M12.46,22.959c-5.8,0-10.479-4.66-10.479-10.418C1.98,6.8,6.66,2.14,12.46,2.14
		c5.78,0,10.481,4.66,10.481,10.401C22.941,18.299,18.24,22.959,12.46,22.959z M31.7,30.139l-9.681-9.68
		c1.801-2.139,2.901-4.899,2.901-7.918c0-6.84-5.581-12.38-12.461-12.38S0,5.7,0,12.541S5.58,24.92,12.46,24.92
		c3.12,0,5.981-1.141,8.161-3.039l9.681,9.66c0.379,0.398,1.02,0.398,1.398,0C32.101,31.16,32.101,30.541,31.7,30.139z"/>
	<g>
		<polygon fill-rule="evenodd" clip-rule="evenodd" points="13.42,19.16 13.42,14.42 18.52,14.42 18.52,11.241 13.46,11.241 
			13.46,6.5 10.98,6.5 10.98,11.241 5.86,11.241 5.86,14.42 10.96,14.42 10.96,19.16 		"/>
	</g>
</g>
</svg>
