<?xml version="1.0" encoding="utf-8"?>
<!-- Generator: Adobe Illustrator 16.0.0, SVG Export Plug-In . SVG Version: 6.00 Build 0)  -->
<!DOCTYPE svg PUBLIC "-//W3C//DTD SVG 1.1//EN" "http://www.w3.org/Graphics/SVG/1.1/DTD/svg11.dtd">
<svg version="1.1" id="Layer_1" xmlns="http://www.w3.org/2000/svg" xmlns:xlink="http://www.w3.org/1999/xlink" x="0px" y="0px"
	 width="32px" height="32px" viewBox="0 0 32 32" enable-background="new 0 0 32 32" xml:space="preserve">
<path d="M22.996,17.003h-5.993v5.993C17.003,23.552,16.554,24,16,24s-1.003-0.448-1.003-1.004v-5.993H9.003
	C8.448,17.003,8,16.554,8,16c0-0.554,0.448-1.003,1.003-1.003h5.994V9.003C14.997,8.448,15.446,8,16,8s1.003,0.448,1.003,1.003
	v5.994h5.993C23.552,14.997,24,15.446,24,16C24,16.554,23.552,17.003,22.996,17.003z M16,2.005C8.277,2.005,2.005,8.277,2.005,16
	c0,7.723,6.271,14.037,13.995,14.037c7.723,0,13.996-6.314,13.996-14.037C29.996,8.277,23.723,2.005,16,2.005z M16,32
	C7.167,32,0,24.833,0,16C0,7.167,7.167,0,16,0c8.833,0,16,7.167,16,16C32,24.833,24.833,32,16,32z"/>
</svg>
